<svg width="28" height="28" viewBox="0 0 28 28" fill="none" xmlns="http://www.w3.org/2000/svg">
<path d="M12 26C13.1 26 14 25.1 14 24H10C10 25.1 10.89 26 12 26ZM18 20V15C18 11.93 16.36 9.36 13.5 8.68V8C13.5 7.17 12.83 6.5 12 6.5C11.17 6.5 10.5 7.17 10.5 8V8.68C7.63 9.36 6 11.92 6 15V20L4 22V23H20V22L18 20Z" fill="#9D9D9D"/>
<rect x="12.25" y="0.25" width="15.5" height="15.5" rx="7.75" fill="#EB6F62"/>
<path d="M22.4707 11H17.6904V10.1846L20.0586 7.60156C20.4004 7.2207 20.6429 6.90332 20.7861 6.64941C20.9326 6.39225 21.0059 6.13509 21.0059 5.87793C21.0059 5.53939 20.9098 5.26595 20.7178 5.05762C20.529 4.84928 20.2734 4.74512 19.9512 4.74512C19.5671 4.74512 19.2692 4.8623 19.0576 5.09668C18.846 5.33105 18.7402 5.65169 18.7402 6.05859H17.5537C17.5537 5.62565 17.6514 5.23665 17.8467 4.8916C18.0452 4.54329 18.3268 4.27311 18.6914 4.08105C19.0592 3.889 19.4824 3.79297 19.9609 3.79297C20.651 3.79297 21.1947 3.96712 21.5918 4.31543C21.9922 4.66048 22.1924 5.139 22.1924 5.75098C22.1924 6.10579 22.0915 6.47852 21.8896 6.86914C21.6911 7.25651 21.3639 7.69759 20.9082 8.19238L19.1699 10.0527H22.4707V11Z" fill="white"/>
<rect x="12.25" y="0.25" width="15.5" height="15.5" rx="7.75" stroke="#F9F9F9" stroke-width="0.5"/>
</svg>
